Motion_pl08
version=1
nRows=13
nColumns=43
inDegrees=yes
endheader
time	pelvis_tilt	pelvis_list	pelvis_rotation	pelvis_tx	pelvis_ty	pelvis_tz	hip_flexion_r	hip_adduction_r	hip_rotation_r	knee_angle_r	ankle_angle_r	subtalar_angle_r	mtp_angle_r	hip_flexion_l	hip_adduction_l	hip_rotation_l	knee_angle_l	ankle_angle_l	subtalar_angle_l	mtp_angle_l	lumbar_extension	lumbar_bending	lumbar_rotation	neck_flexion	neck_lateral_bending	neck_rotation	arm_flex_r	arm_add_r	arm_rot_r	elbow_flex_r	pro_sup_r	wrist_flex_r	wrist_dev_r	hand_finger_flex_r	arm_flex_l	arm_add_l	arm_rot_l	elbow_flex_l	pro_sup_l	wrist_flex_l	wrist_dev_l	hand_finger_flex_l
      0.00250000	      0.72386833	    -11.67907982	     93.40398973	      0.02016975	      2.04530643	      1.66747702	     21.62571668	     -2.09479404	      4.25969390	    -26.71980114	      9.17285799	    -18.16695107	     -3.92560936	     24.02640771	     -5.14754081	      3.58938418	    -32.11294934	     14.21953828	     -3.00363431	      4.03425373	    -17.86498040	     -2.20881425	     -2.85197904	     -8.12820492	      5.95890758	     -1.96627436	     21.28000563	    -27.41904600	    -30.34576706	     55.87314201	    134.74965813	    -11.40438306	     13.08829242	     -9.72066691	     14.49548380	    -33.85725450	    -34.98915218	     56.26209365	    128.65019604	    -20.18671447	     -0.97552780	     22.94862751
      0.00500000	      0.72551500	    -11.67829426	     93.41281042	      0.02020072	      2.04523231	      1.66750181	     21.64562659	     -2.10732061	      4.25639908	    -26.72408826	      9.17645081	    -18.16984585	     -3.92719080	     24.03917404	     -5.14871279	      3.57875554	    -32.11375874	     14.22114946	     -3.00579672	      4.03466852	    -17.90064273	     -2.20140340	     -2.84719852	     -8.14004508	      5.95947071	     -1.95577747	     21.27300474	    -27.41621286	    -30.34428314	     55.87984434	    134.74837075	    -11.40781001	     13.08386162	     -9.71948455	     14.49710100	    -33.85823598	    -34.99020549	     56.26770263	    128.65485276	    -20.19046054	     -0.97984425	     22.95367863
      0.00750000	      0.69914713	    -11.57091749	     93.48020721	      0.02013496	      2.04513218	      1.66784123	     21.78282803	     -2.16095135	      4.12957156	    -27.21082164	      9.21180509	    -18.16971147	     -3.96850867	     24.11857406	     -5.13639743	      3.37108503	    -32.40396609	     14.19766940	     -3.00515263	      4.04637123	    -18.13379093	     -2.19199047	     -2.89064000	     -8.23127658	      5.97099651	     -1.72240160	     21.14615314	    -27.45221744	    -30.42947359	     56.20418911	    134.70778728	    -11.55842648	     12.98340451	     -9.69797841	     14.51551166	    -33.81528554	    -35.07175117	     56.49144524	    128.78757193	    -20.34798516	     -1.11980607	     23.08647336
      0.01000000	      0.69998503	    -11.57256564	     93.48622969	      0.02021306	      2.04506199	      1.66786425	     21.80403529	     -2.16770776	      4.13012857	    -27.21168693	      9.21429392	    -18.16754673	     -3.96952783	     24.13310599	     -5.13641734	      3.36927849	    -32.40314140	     14.19885342	     -3.00367991	      4.04690866	    -18.17192368	     -2.19099321	     -2.88202296	     -8.23571531	      5.97119841	     -1.71948044	     21.14254144	    -27.45019128	    -30.43205755	     56.21019758	    134.70631977	    -11.56201900	     12.98201456	     -9.69717355	     14.51190643	    -33.81654083	    -35.07771655	     56.49544645	    128.79142387	    -20.35378164	     -1.12313035	     23.08990330
      0.01250000	      0.63552959	    -11.62097752	     93.41141923	      0.02037337	      2.04478600	      1.66861264	     22.18412418	     -2.22470192	      4.15573480	    -27.74974836	      9.37766999	    -17.80154770	     -4.06662741	     24.37379013	     -5.09899669	      3.28545851	    -32.69136757	     14.20084577	     -2.79375415	      4.09907364	    -18.38861634	     -2.26758339	     -2.86704399	     -7.70022906	      6.01773620	     -1.58323345	     21.03073734	    -27.34294870	    -30.71482178	     56.80838577	    134.53112832	    -11.85370060	     12.95068754	     -9.58274781	     14.42492274	    -33.70660770	    -35.44849863	     56.91313853	    129.19106303	    -20.87742311	     -1.44522568	     23.45897221
      0.01500000	      0.63936533	    -11.62047937	     93.42444745	      0.02054947	      2.04476672	      1.66861948	     22.20425129	     -2.24660383	      4.15993966	    -27.75705800	      9.37941627	    -17.79937740	     -4.06776386	     24.39750645	     -5.11056415	      3.27867483	    -32.69290481	     14.20264546	     -2.79571202	      4.09956323	    -18.43623101	     -2.26431669	     -2.85895995	     -7.71314653	      6.01632313	     -1.58353781	     21.02169475	    -27.34556031	    -30.71623348	     56.80586844	    134.53021978	    -11.85463948	     12.95172928	     -9.58130283	     14.42002462	    -33.70856459	    -35.45214619	     56.91877549	    129.19452569	    -20.88230634	     -1.44858449	     23.46297181
      0.01750000	      0.63503201	    -11.51569447	     93.50011511	      0.02037069	      2.04455246	      1.66915070	     22.37599515	     -2.25799255	      4.14861434	    -28.29917303	      9.38379497	    -17.68939059	     -4.09576815	     24.54355177	     -5.10485933	      3.14055860	    -33.09277522	     14.16927388	     -2.76705345	      4.11295166	    -18.68033281	     -2.24268709	     -2.89983569	     -7.80669607	      6.02648300	     -1.60564104	     20.96818374	    -27.41571163	    -30.78656158	     57.05308841	    134.50999251	    -11.94789734	     12.94317260	     -9.55552025	     14.41797398	    -33.67225925	    -35.52308317	     57.24214029	    129.30153622	    -21.07148639	     -1.58763421	     23.55546435
      0.02000000	      0.63707301	    -11.52060132	     93.50456402	      0.02044408	      2.04447668	      1.66921117	     22.39903207	     -2.27263412	      4.15057595	    -28.30242305	      9.38723285	    -17.68612730	     -4.09657535	     24.56729266	     -5.11453843	      3.14153785	    -33.09179091	     14.17109157	     -2.76544573	      4.11357415	    -18.72671851	     -2.24161571	     -2.89054319	     -7.81269460	      6.02697672	     -1.60628827	     20.96507278	    -27.41296504	    -30.78778095	     57.06108118	    134.50938993	    -11.95097682	     12.94299363	     -9.55468850	     14.41516491	    -33.67523785	    -35.53003512	     57.24901597	    129.30525528	    -21.07942761	     -1.59108716	     23.55767605
      0.02250000	      0.64465185	    -11.46359378	     93.53541017	      0.02054231	      2.04424239	      1.66993745	     22.68290297	     -2.26432769	      4.15854842	    -28.91382500	      9.41856836	    -17.50808046	     -4.12137994	     24.80811349	     -5.12604811	      3.11295718	    -33.56203028	     14.12976845	     -2.65830938	      4.13209235	    -18.99061276	     -2.23100429	     -2.91395253	     -7.70898124	      6.06790499	     -1.62705396	     20.89713844	    -27.39662962	    -30.93271797	     57.49195803	    134.49414353	    -12.11552418	     12.94673982	     -9.53835407	     14.36351383	    -33.63141155	    -35.71908441	     57.66125824	    129.44427178	    -21.40912155	     -1.76152695	     23.61414137
      0.02500000	      0.64648356	    -11.47119305	     93.53812295	      0.02060093	      2.04416105	      1.67002122	     22.70984711	     -2.27769679	      4.16117945	    -28.91204595	      9.42345408	    -17.50314783	     -4.12213590	     24.83759816	     -5.13527776	      3.11380767	    -33.55772828	     14.13270006	     -2.65574851	      4.13288572	    -19.03776343	     -2.22815803	     -2.90830202	     -7.71104773	      6.06828988	     -1.62743134	     20.89533327	    -27.39662183	    -30.93674962	     57.50097075	    134.49363647	    -12.11943629	     12.94775945	     -9.53739435	     14.36308965	    -33.63667428	    -35.72732591	     57.67158454	    129.44900468	    -21.42000913	     -1.76592243	     23.61563075
      0.02750000	      0.73821591	    -12.28024790	     93.61025785	      0.02066985	      2.04247293	      1.67143550	     24.00910058	     -2.30371829	      3.94322215	    -29.60107382	      9.88098845	    -16.55875417	     -4.39664257	     26.15925330	     -5.17463980	      3.12864407	    -34.21816386	     14.24217596	     -2.22499241	      4.28214341	    -18.38099957	     -2.17276480	     -2.96618438	     -7.26902760	      6.09696324	     -1.68363460	     20.70091270	    -27.41102132	    -31.01342181	     58.10319103	    134.30974930	    -12.26756222	     13.30836459	     -9.04119369	     14.17098046	    -33.54135271	    -35.96951239	     58.02619397	    130.35564910	    -22.65350443	     -2.16036328	     24.46728069
      0.03000000	      0.74126555	    -12.28030941	     93.61499645	      0.02069601	      2.04239338	      1.67150049	     24.02984438	     -2.32108126	      3.95052440	    -29.60791976	      9.88148972	    -16.55906897	     -4.39786528	     26.18219921	     -5.18347696	      3.13014447	    -34.22006261	     14.24127669	     -2.22572071	      4.28238926	    -18.43074499	     -2.16455235	     -2.96154830	     -7.28336500	      6.09735817	     -1.68277952	     20.69606363	    -27.41374413	    -31.02155447	     58.10835822	    134.31128118	    -12.27424052	     13.30742794	     -9.04217642	     14.17270383	    -33.54848458	    -35.97869659	     58.03670881	    130.35509626	    -22.66055620	     -2.16261358	     24.46879887
      0.03250000	      0.75290781	    -12.15865730	     93.69651063	      0.02071074	      2.04228060	      1.67212618	     24.18025245	     -2.30335481	      4.00482738	    -30.11750342	      9.84038393	    -16.52537754	     -4.42520437	     26.34491578	     -5.17457872	      3.15493585	    -34.66413085	     14.14434258	     -2.19414912	      4.28720457	    -18.73061376	     -2.13372846	     -3.00094307	     -7.36553626	      6.12669243	     -1.66646335	     20.66644393	    -27.38990282	    -31.20524700	     58.42114180	    134.35178536	    -12.46729853	     13.26634265	     -9.06886246	     14.20631440	    -33.49547098	    -36.10784277	     58.38864797	    130.35464009	    -22.87047457	     -2.25025339	     24.48714625
